<svg width="36" height="35" viewBox="0 0 36 35" fill="none" xmlns="http://www.w3.org/2000/svg">
<path d="M2.41005 25.7911L0.456299 24.3557L7.95231 12.394L12.737 17.9761L19.0767 7.68901L23.4228 14.1483C22.9975 14.2015 22.5855 14.2879 22.1868 14.4075C21.788 14.5271 21.3893 14.6667 20.9906 14.8262L19.1963 12.075L13.0959 22.0032L8.27129 16.3812L2.41005 25.7911ZM33.8295 34.1244L28.4866 28.7815C27.9284 29.1802 27.3237 29.4859 26.6724 29.6986C26.0212 29.9112 25.35 30.0176 24.6588 30.0176C22.7716 30.0176 21.17 29.3597 19.8542 28.0439C18.5384 26.7281 17.8805 25.1265 17.8805 23.2392C17.8805 21.352 18.5384 19.7504 19.8542 18.4346C21.17 17.1188 22.7716 16.4609 24.6588 16.4609C26.5461 16.4609 28.1477 17.1188 29.4635 18.4346C30.7793 19.7504 31.4372 21.352 31.4372 23.2392C31.4372 23.9304 31.3242 24.6016 31.0982 25.2528C30.8723 25.9041 30.5733 26.5221 30.2011 27.1069L35.544 32.4099L33.8295 34.1244ZM24.6588 27.6252C25.8816 27.6252 26.9183 27.1999 27.7689 26.3493C28.6195 25.4987 29.0448 24.462 29.0448 23.2392C29.0448 22.0165 28.6195 20.9798 27.7689 20.1292C26.9183 19.2786 25.8816 18.8533 24.6588 18.8533C23.4361 18.8533 22.3994 19.2786 21.5488 20.1292C20.6982 20.9798 20.2729 22.0165 20.2729 23.2392C20.2729 24.462 20.6982 25.4987 21.5488 26.3493C22.3994 27.1999 23.4361 27.6252 24.6588 27.6252ZM27.6094 14.5471C27.2107 14.3876 26.7987 14.2812 26.3734 14.2281C25.9481 14.1749 25.5095 14.1218 25.0576 14.0686L33.5903 0.631592L35.544 2.067L27.6094 14.5471Z" fill="white"/>
</svg>
