<svg width="36" height="36" viewBox="0 0 36 36" fill="none" xmlns="http://www.w3.org/2000/svg">
<path d="M0.456055 35.614V26.8421H7.96093L16.5379 18.2651V11.0039C15.4008 10.614 14.4668 9.95613 13.7358 9.0302C13.0048 8.10428 12.6393 7.05652 12.6393 5.88693C12.6393 4.39245 13.1591 3.1254 14.1987 2.08576C15.2384 1.04612 16.5054 0.526306 17.9999 0.526306C19.4944 0.526306 20.7614 1.04612 21.8011 2.08576C22.8407 3.1254 23.3605 4.39245 23.3605 5.88693C23.3605 7.05652 22.995 8.10428 22.264 9.0302C21.5331 9.95613 20.599 10.614 19.4619 11.0039V18.2651L28.0389 26.8421H35.5438V35.614H26.7718V29.961L17.9999 21.1891L9.22798 29.961V35.614H0.456055Z" fill="white"/>
</svg>
