<svg width="88" height="67" viewBox="0 0 88 67" fill="none" xmlns="http://www.w3.org/2000/svg">
<g filter="url(#filter0_d_32_146)">
<rect x="4" width="80" height="58.2456" rx="20" fill="#43C59E"/>
</g>
<path d="M28.41 37.7911L26.4563 36.3557L33.9523 24.394L38.737 29.9761L45.0767 19.689L49.4228 26.1483C48.9975 26.2015 48.5855 26.2879 48.1868 26.4075C47.788 26.5271 47.3893 26.6667 46.9906 26.8262L45.1963 24.075L39.0959 34.0032L34.2713 28.3812L28.41 37.7911ZM59.8295 46.1244L54.4866 40.7815C53.9284 41.1802 53.3237 41.4859 52.6724 41.6986C52.0212 41.9112 51.35 42.0176 50.6588 42.0176C48.7716 42.0176 47.17 41.3597 45.8542 40.0439C44.5384 38.7281 43.8805 37.1265 43.8805 35.2392C43.8805 33.3519 44.5384 31.7504 45.8542 30.4346C47.17 29.1188 48.7716 28.4609 50.6588 28.4609C52.5461 28.4609 54.1477 29.1188 55.4635 30.4346C56.7793 31.7504 57.4372 33.3519 57.4372 35.2392C57.4372 35.9304 57.3242 36.6016 57.0982 37.2528C56.8723 37.9041 56.5733 38.5221 56.2011 39.1069L61.544 44.4099L59.8295 46.1244ZM50.6588 39.6252C51.8816 39.6252 52.9183 39.1999 53.7689 38.3493C54.6195 37.4987 55.0448 36.462 55.0448 35.2392C55.0448 34.0165 54.6195 32.9798 53.7689 32.1292C52.9183 31.2786 51.8816 30.8533 50.6588 30.8533C49.4361 30.8533 48.3994 31.2786 47.5488 32.1292C46.6982 32.9798 46.2729 34.0165 46.2729 35.2392C46.2729 36.462 46.6982 37.4987 47.5488 38.3493C48.3994 39.1999 49.4361 39.6252 50.6588 39.6252ZM53.6094 26.5471C53.2107 26.3876 52.7987 26.2812 52.3734 26.2281C51.9481 26.1749 51.5095 26.1218 51.0576 26.0686L59.5903 12.6316L61.544 14.067L53.6094 26.5471Z" fill="white"/>
<defs>
<filter id="filter0_d_32_146" x="0" y="0" width="88" height="66.2456" filterUnits="userSpaceOnUse" color-interpolation-filters="sRGB">
<feFlood flood-opacity="0" result="BackgroundImageFix"/>
<feColorMatrix in="SourceAlpha" type="matrix" values="0 0 0 0 0 0 0 0 0 0 0 0 0 0 0 0 0 0 127 0" result="hardAlpha"/>
<feOffset dy="4"/>
<feGaussianBlur stdDeviation="2"/>
<feComposite in2="hardAlpha" operator="out"/>
<feColorMatrix type="matrix" values="0 0 0 0 0 0 0 0 0 0 0 0 0 0 0 0 0 0 0.25 0"/>
<feBlend mode="normal" in2="BackgroundImageFix" result="effect1_dropShadow_32_146"/>
<feBlend mode="normal" in="SourceGraphic" in2="effect1_dropShadow_32_146" result="shape"/>
</filter>
</defs>
</svg>
