<svg width="50" height="29" viewBox="0 0 50 29" fill="none" xmlns="http://www.w3.org/2000/svg">
<path d="M50 17.1027C50 21.2071 46.68 24.5335 42.5848 24.5335C42.4428 24.5335 42.2995 24.5335 42.1457 24.5231C41.3288 24.4723 40.5431 24.2977 39.8173 24.0006C39.3678 24.5335 38.8779 25.0248 38.3476 25.4756C36.2837 27.215 33.6191 28.2691 30.7083 28.2691C28.1558 28.2691 25.7857 27.46 23.8456 26.0789C23.2736 26.273 22.6807 26.4163 22.0788 26.5193C21.4247 26.6313 20.7615 26.6821 20.0774 26.6821C17.9327 26.6821 15.9209 26.1101 14.175 25.1173C13.4192 24.6873 12.7248 24.1752 12.0811 23.5915C10.8042 24.6261 9.1807 25.2502 7.41387 25.2502C4.5239 25.2502 2.0222 23.5915 0.796112 21.1758C0.285349 20.1634 0 19.0272 0 17.8194C0 13.715 3.31865 10.3885 7.41387 10.3885C7.44384 10.3885 7.47511 10.3885 7.50508 10.3885C8.27123 4.5239 13.2551 0 19.3008 0C23.1302 0 26.5414 1.82155 28.7069 4.64638C29.3597 4.53432 30.0242 4.4835 30.7083 4.4835C34.8947 4.4835 38.5717 6.65294 40.6851 9.9286C41.2884 9.76442 41.932 9.68234 42.5848 9.68234C46.5276 9.68234 49.7537 12.7625 49.9896 16.6623C49.9896 16.8056 50 16.949 50 17.1027Z" fill="white"/>
<path d="M42.1626 24.2737L42.1612 24.2736C41.3697 24.2244 40.611 24.0554 39.912 23.7693L39.7436 23.7003L39.6262 23.8394C39.1858 24.3616 38.7058 24.8428 38.1862 25.2847C36.1654 26.9877 33.5575 28.0191 30.7083 28.0191C28.2094 28.0191 25.8897 27.2272 23.9906 25.8752L23.8864 25.801L23.7652 25.8421C23.2074 26.0314 22.6276 26.1718 22.0366 26.2728L22.0365 26.2728C21.3979 26.3822 20.749 26.4321 20.0774 26.4321C17.9778 26.4321 16.0085 25.8723 14.2986 24.9C13.56 24.4797 12.8802 23.9787 12.249 23.4063L12.0903 23.2623L11.9237 23.3972C10.6892 24.3975 9.12072 25.0002 7.41387 25.0002C4.62238 25.0002 2.20476 23.3984 1.01929 21.0631C0.525757 20.0849 0.25 18.9872 0.25 17.8194C0.25 13.8525 3.45727 10.6385 7.41387 10.6385H7.41405H7.41423H7.4144H7.41458H7.41475H7.41493H7.4151H7.41528H7.41546H7.41563H7.41581H7.41598H7.41616H7.41634H7.41651H7.41669H7.41686H7.41704H7.41722H7.41739H7.41757H7.41774H7.41792H7.4181H7.41827H7.41845H7.41863H7.4188H7.41898H7.41916H7.41933H7.41951H7.41968H7.41986H7.42004H7.42021H7.42039H7.42057H7.42074H7.42092H7.4211H7.42127H7.42145H7.42163H7.4218H7.42198H7.42216H7.42234H7.42251H7.42269H7.42287H7.42304H7.42322H7.4234H7.42357H7.42375H7.42393H7.42411H7.42428H7.42446H7.42464H7.42481H7.42499H7.42517H7.42535H7.42552H7.4257H7.42588H7.42605H7.42623H7.42641H7.42659H7.42676H7.42694H7.42712H7.4273H7.42747H7.42765H7.42783H7.42801H7.42818H7.42836H7.42854H7.42872H7.4289H7.42907H7.42925H7.42943H7.42961H7.42978H7.42996H7.43014H7.43032H7.4305H7.43067H7.43085H7.43103H7.43121H7.43139H7.43156H7.43174H7.43192H7.4321H7.43228H7.43245H7.43263H7.43281H7.43299H7.43317H7.43334H7.43352H7.4337H7.43388H7.43406H7.43424H7.43441H7.43459H7.43477H7.43495H7.43513H7.43531H7.43548H7.43566H7.43584H7.43602H7.4362H7.43638H7.43655H7.43673H7.43691H7.43709H7.43727H7.43745H7.43762H7.4378H7.43798H7.43816H7.43834H7.43852H7.4387H7.43888H7.43905H7.43923H7.43941H7.43959H7.43977H7.43995H7.44013H7.4403H7.44048H7.44066H7.44084H7.44102H7.4412H7.44138H7.44156H7.44173H7.44191H7.44209H7.44227H7.44245H7.44263H7.44281H7.44299H7.44317H7.44335H7.44352H7.4437H7.44388H7.44406H7.44424H7.44442H7.4446H7.44478H7.44496H7.44514H7.44531H7.44549H7.44567H7.44585H7.44603H7.44621H7.44639H7.44657H7.44675H7.44693H7.4471H7.44728H7.44746H7.44764H7.44782H7.448H7.44818H7.44836H7.44854H7.44872H7.4489H7.44908H7.44925H7.44943H7.44961H7.44979H7.44997H7.45015H7.45033H7.45051H7.45069H7.45087H7.45105H7.45123H7.45141H7.45159H7.45176H7.45194H7.45212H7.4523H7.45248H7.45266H7.45284H7.45302H7.4532H7.45338H7.45356H7.45374H7.45392H7.4541H7.45428H7.45445H7.45463H7.45481H7.45499H7.45517H7.45535H7.45553H7.45571H7.45589H7.45607H7.45625H7.45643H7.45661H7.45679H7.45697H7.45715H7.45732H7.4575H7.45768H7.45786H7.45804H7.45822H7.4584H7.45858H7.45876H7.45894H7.45912H7.4593H7.45948H7.45966H7.45984H7.46002H7.4602H7.46037H7.46055H7.46073H7.46091H7.46109H7.46127H7.46145H7.46163H7.46181H7.46199H7.46217H7.46235H7.46253H7.46271H7.46289H7.46307H7.46325H7.46342H7.4636H7.46378H7.46396H7.46414H7.46432H7.4645H7.46468H7.46486H7.46504H7.46522H7.4654H7.46558H7.46576H7.46594H7.46611H7.46629H7.46647H7.46665H7.46683H7.46701H7.46719H7.46737H7.46755H7.46773H7.46791H7.46809H7.46827H7.46845H7.46863H7.4688H7.46898H7.46916H7.46934H7.46952H7.4697H7.46988H7.47006H7.47024H7.47042H7.4706H7.47078H7.47096H7.47113H7.47131H7.47149H7.47167H7.47185H7.47203H7.47221H7.47239H7.47257H7.47275H7.47293H7.4731H7.47328H7.47346H7.47364H7.47382H7.474H7.47418H7.47436H7.47454H7.47472H7.4749H7.47507H7.47525H7.47543H7.47561H7.47579H7.47597H7.47615H7.47633H7.47651H7.47668H7.47686H7.47704H7.47722H7.4774H7.47758H7.47776H7.47794H7.47812H7.47829H7.47847H7.47865H7.47883H7.47901H7.47919H7.47937H7.47954H7.47972H7.4799H7.48008H7.48026H7.48044H7.48062H7.4808H7.48097H7.48115H7.48133H7.48151H7.48169H7.48187H7.48205H7.48222H7.4824H7.48258H7.48276H7.48294H7.48312H7.48329H7.48347H7.48365H7.48383H7.48401H7.48419H7.48436H7.48454H7.48472H7.4849H7.48508H7.48526H7.48543H7.48561H7.48579H7.48597H7.48615H7.48632H7.4865H7.48668H7.48686H7.48704H7.48721H7.48739H7.48757H7.48775H7.48793H7.4881H7.48828H7.48846H7.48864H7.48882H7.48899H7.48917H7.48935H7.48953H7.4897H7.48988H7.49006H7.49024H7.49042H7.49059H7.49077H7.49095H7.49113H7.4913H7.49148H7.49166H7.49184H7.49201H7.49219H7.49237H7.49255H7.49272H7.4929H7.49308H7.49326H7.49343H7.49361H7.49379H7.49396H7.49414H7.49432H7.4945H7.49467H7.49485H7.49503H7.4952H7.49538H7.49556H7.49574H7.49591H7.49609H7.49627H7.49644H7.49662H7.4968H7.49697H7.49715H7.49733H7.49751H7.49768H7.49786H7.49804H7.49821H7.49839H7.49857H7.49874H7.49892H7.49909H7.49927H7.49945H7.49962H7.4998H7.49998H7.50015H7.50033H7.50051H7.50068H7.50086H7.50104H7.50121H7.50139H7.50156H7.50174H7.50192H7.50209H7.50227H7.50244H7.50262H7.5028H7.50297H7.50315H7.50332H7.5035H7.50368H7.50385H7.50403H7.5042H7.50438H7.50455H7.50473H7.50491H7.50508H7.72455L7.75298 10.4209C8.50321 4.67808 13.3833 0.25 19.3008 0.25C23.0492 0.25 26.3883 2.03269 28.5085 4.79848L28.6004 4.91832L28.7492 4.89277C29.3864 4.78339 30.0367 4.7335 30.7083 4.7335C34.8061 4.7335 38.4056 6.85667 40.475 10.0641L40.5742 10.2179L40.7507 10.1698C41.3312 10.0119 41.9527 9.93234 42.5848 9.93234C46.3917 9.93234 49.5081 12.9045 49.7396 16.6701C49.7398 16.7425 49.7423 16.8142 49.7448 16.8822L49.7449 16.8875C49.7476 16.961 49.75 17.031 49.75 17.1027C49.75 21.0695 46.5415 24.2835 42.5848 24.2835C42.4419 24.2835 42.3067 24.2835 42.1626 24.2737Z" stroke="black" stroke-opacity="0.5" stroke-width="0.5"/>
</svg>
