<svg width="40" height="40" viewBox="0 0 40 40" fill="none" xmlns="http://www.w3.org/2000/svg">
<path d="M18.6398 34.4V31.04C17.1198 30.7733 15.8731 30.1933 14.8998 29.3C13.9265 28.4066 13.2265 27.28 12.7998 25.92L15.0398 25C15.4931 26.28 16.1465 27.2333 16.9998 27.86C17.8531 28.4866 18.8798 28.8 20.0798 28.8C21.3598 28.8 22.4131 28.48 23.2398 27.84C24.0665 27.2 24.4798 26.32 24.4798 25.2C24.4798 24.0266 24.1131 23.12 23.3798 22.48C22.6465 21.84 21.2665 21.1866 19.2398 20.52C17.3198 19.9066 15.8865 19.0933 14.9398 18.08C13.9931 17.0666 13.5198 15.8 13.5198 14.28C13.5198 12.8133 13.9931 11.5866 14.9398 10.6C15.8865 9.61331 17.1198 9.05331 18.6398 8.91998V5.59998H21.0398V8.91998C22.2398 9.05331 23.2731 9.44664 24.1398 10.1C25.0065 10.7533 25.6665 11.5866 26.1198 12.6L23.8798 13.56C23.5065 12.7066 23.0065 12.0866 22.3798 11.7C21.7531 11.3133 20.9331 11.12 19.9198 11.12C18.6931 11.12 17.7198 11.4 16.9998 11.96C16.2798 12.52 15.9198 13.28 15.9198 14.24C15.9198 15.2533 16.3198 16.0733 17.1198 16.7C17.9198 17.3266 19.3998 17.9733 21.5598 18.64C23.3731 19.2 24.7131 20.0066 25.5798 21.06C26.4465 22.1133 26.8798 23.44 26.8798 25.04C26.8798 26.72 26.3865 28.0733 25.3998 29.1C24.4131 30.1266 22.9598 30.7866 21.0398 31.08V34.4H18.6398Z" fill="white"/>
</svg>
