<svg width="50" height="50" viewBox="0 0 50 50" fill="white" xmlns="http://www.w3.org/2000/svg">
<rect width="50" height="50" fill="white"/>
<path d="M23.3 43V38.8C21.4 38.4667 19.8417 37.7417 18.625 36.625C17.4083 35.5083 16.5333 34.1 16 32.4L18.8 31.25C19.3667 32.85 20.1833 34.0417 21.25 34.825C22.3167 35.6083 23.6 36 25.1 36C26.7 36 28.0167 35.6 29.05 34.8C30.0833 34 30.6 32.9 30.6 31.5C30.6 30.0333 30.1417 28.9 29.225 28.1C28.3083 27.3 26.5833 26.4833 24.05 25.65C21.65 24.8833 19.8583 23.8667 18.675 22.6C17.4917 21.3333 16.9 19.75 16.9 17.85C16.9 16.0167 17.4917 14.4833 18.675 13.25C19.8583 12.0167 21.4 11.3167 23.3 11.15V7H26.3V11.15C27.8 11.3167 29.0917 11.8083 30.175 12.625C31.2583 13.4417 32.0833 14.4833 32.65 15.75L29.85 16.95C29.3833 15.8833 28.7583 15.1083 27.975 14.625C27.1917 14.1417 26.1667 13.9 24.9 13.9C23.3667 13.9 22.15 14.25 21.25 14.95C20.35 15.65 19.9 16.6 19.9 17.8C19.9 19.0667 20.4 20.0917 21.4 20.875C22.4 21.6583 24.25 22.4667 26.95 23.3C29.2167 24 30.8917 25.0083 31.975 26.325C33.0583 27.6417 33.6 29.3 33.6 31.3C33.6 33.4 32.9833 35.0917 31.75 36.375C30.5167 37.6583 28.7 38.4833 26.3 38.85V43H23.3Z" fill="#0075A2"/>
</svg>
