<svg width="40" height="40" viewBox="0 0 40 40" fill="none" xmlns="http://www.w3.org/2000/svg">
<path d="M7.1998 33.6C6.5598 33.6 5.9998 33.36 5.5198 32.88C5.0398 32.4 4.7998 31.84 4.7998 31.2V7.19999C4.7998 6.55999 5.0398 5.99999 5.5198 5.51999C5.9998 5.03999 6.5598 4.79999 7.1998 4.79999H31.1998C31.8398 4.79999 32.3998 5.03999 32.8798 5.51999C33.3598 5.99999 33.5998 6.55999 33.5998 7.19999V17.08C33.2265 16.92 32.8398 16.7733 32.4398 16.64C32.0398 16.5067 31.6265 16.4 31.1998 16.32V7.19999H7.1998V23.36H13.9998C14.5065 24.1333 15.0865 24.8 15.7398 25.36C16.3931 25.92 17.1198 26.3067 17.9198 26.52C17.8665 26.9467 17.8531 27.36 17.8798 27.76C17.9065 28.16 17.9465 28.56 17.9998 28.96C17.0131 28.8 16.0798 28.4467 15.1998 27.9C14.3198 27.3533 13.5998 26.64 13.0398 25.76H7.1998V31.2H18.5598C18.7198 31.6267 18.8998 32.04 19.0998 32.44C19.2998 32.84 19.5331 33.2267 19.7998 33.6H7.1998ZM7.1998 31.2H18.5598H7.1998ZM27.8798 35.2L27.6798 33.28C27.0665 33.0933 26.5065 32.8467 25.9998 32.54C25.4931 32.2333 25.0531 31.9067 24.6798 31.56L22.9998 32.36L21.5998 30.2L23.1198 29C22.9865 28.4933 22.9198 27.94 22.9198 27.34C22.9198 26.74 22.9865 26.1867 23.1198 25.68L21.5998 24.48L22.9998 22.28L24.6798 23.08C25.0531 22.76 25.4931 22.4467 25.9998 22.14C26.5065 21.8333 27.0665 21.5867 27.6798 21.4L27.8798 19.44H30.2798L30.5198 21.4C31.1331 21.5867 31.6931 21.8333 32.1998 22.14C32.7065 22.4467 33.1465 22.76 33.5198 23.08L35.1998 22.28L36.5998 24.48L35.0798 25.68C35.2131 26.1867 35.2798 26.74 35.2798 27.34C35.2798 27.94 35.2131 28.4933 35.0798 29L36.5998 30.2L35.1998 32.36L33.5198 31.56C33.1465 31.9067 32.7065 32.2333 32.1998 32.54C31.6931 32.8467 31.1331 33.0933 30.5198 33.28L30.2798 35.2H27.8798ZM29.0798 31.4C30.2531 31.4 31.2265 31.0133 31.9998 30.24C32.7731 29.4667 33.1598 28.4933 33.1598 27.32C33.1598 26.1467 32.7731 25.1733 31.9998 24.4C31.2265 23.6267 30.2531 23.24 29.0798 23.24C27.9065 23.24 26.9331 23.6267 26.1598 24.4C25.3865 25.1733 24.9998 26.1467 24.9998 27.32C24.9998 28.4933 25.3865 29.4667 26.1598 30.24C26.9331 31.0133 27.9065 31.4 29.0798 31.4Z" fill="white"/>
</svg>
