<svg width="50" height="50" viewBox="0 0 50 50" fill="none" xmlns="http://www.w3.org/2000/svg">
<rect width="50" height="50" fill="white"/>
<path d="M9 42C8.2 42 7.5 41.7 6.9 41.1C6.3 40.5 6 39.8 6 39V9C6 8.2 6.3 7.5 6.9 6.9C7.5 6.3 8.2 6 9 6H39C39.8 6 40.5 6.3 41.1 6.9C41.7 7.5 42 8.2 42 9V21.35C41.5333 21.15 41.05 20.9667 40.55 20.8C40.05 20.6333 39.5333 20.5 39 20.4V9H9V29.2H17.5C18.1333 30.1667 18.8583 31 19.675 31.7C20.4917 32.4 21.4 32.8833 22.4 33.15C22.3333 33.6833 22.3167 34.2 22.35 34.7C22.3833 35.2 22.4333 35.7 22.5 36.2C21.2667 36 20.1 35.5583 19 34.875C17.9 34.1917 17 33.3 16.3 32.2H9V39H23.2C23.4 39.5333 23.625 40.05 23.875 40.55C24.125 41.05 24.4167 41.5333 24.75 42H9ZM9 39H23.2H9ZM34.85 44L34.6 41.6C33.8333 41.3667 33.1333 41.0583 32.5 40.675C31.8667 40.2917 31.3167 39.8833 30.85 39.45L28.75 40.45L27 37.75L28.9 36.25C28.7333 35.6167 28.65 34.925 28.65 34.175C28.65 33.425 28.7333 32.7333 28.9 32.1L27 30.6L28.75 27.85L30.85 28.85C31.3167 28.45 31.8667 28.0583 32.5 27.675C33.1333 27.2917 33.8333 26.9833 34.6 26.75L34.85 24.3H37.85L38.15 26.75C38.9167 26.9833 39.6167 27.2917 40.25 27.675C40.8833 28.0583 41.4333 28.45 41.9 28.85L44 27.85L45.75 30.6L43.85 32.1C44.0167 32.7333 44.1 33.425 44.1 34.175C44.1 34.925 44.0167 35.6167 43.85 36.25L45.75 37.75L44 40.45L41.9 39.45C41.4333 39.8833 40.8833 40.2917 40.25 40.675C39.6167 41.0583 38.9167 41.3667 38.15 41.6L37.85 44H34.85ZM36.35 39.25C37.8167 39.25 39.0333 38.7667 40 37.8C40.9667 36.8333 41.45 35.6167 41.45 34.15C41.45 32.6833 40.9667 31.4667 40 30.5C39.0333 29.5333 37.8167 29.05 36.35 29.05C34.8833 29.05 33.6667 29.5333 32.7 30.5C31.7333 31.4667 31.25 32.6833 31.25 34.15C31.25 35.6167 31.7333 36.8333 32.7 37.8C33.6667 38.7667 34.8833 39.25 36.35 39.25Z" fill="#0075A2"/>
</svg>
