<svg width="210" height="232" viewBox="0 0 210 232" fill="none" xmlns="http://www.w3.org/2000/svg">
<ellipse cx="86" cy="134.5" rx="32" ry="17.5" fill="#43C59E"/>
<ellipse cx="61.5" cy="141" rx="7.5" ry="6" fill="#43C59E"/>
<ellipse cx="64" cy="130.5" rx="3" ry="8.5" fill="#43C59E"/>
<path d="M141.606 153C181.123 153 209.314 62.007 179.662 63.5493C108.11 63.5493 120.391 73.415 120.391 7C80.8734 7 50 35.0054 50 67.5C55.0355 98.5 102.089 153 141.606 153Z" fill="#43C59E"/>
<path d="M164.5 139C166.513 150.323 109.032 169.978 81.86 169.978C64.7467 169.978 54 166.554 54 159.552C54 152.55 67.8731 146.874 84.9863 146.874C102.1 146.874 164.5 131.998 164.5 139Z" fill="#43C59E"/>
<path d="M57.1227 121.064C63.9245 121.11 69.3791 130.02 69.306 140.966C69.233 151.912 63.6598 160.748 56.8581 160.703C50.0563 160.658 57.5814 153.035 57.6545 142.089C57.7276 131.143 50.321 121.019 57.1227 121.064Z" fill="#43C59E"/>
<path d="M53.4037 142.945C54.3646 142.423 55.8593 143.318 56.7421 144.944C57.625 146.569 58.9609 148.978 57.9999 149.5C57.039 150.022 56.0768 147.641 55.194 146.015C54.3111 144.389 52.4427 143.467 53.4037 142.945Z" fill="#43C59E"/>
<path d="M53.9407 144.189C52.8689 143.972 52.2969 142.327 52.6632 140.513C53.0295 138.7 53.5509 135.995 54.6227 136.212C55.6945 136.428 54.9045 138.872 54.5382 140.685C54.1719 142.498 55.0126 144.405 53.9407 144.189Z" fill="#43C59E"/>
<path d="M53.9407 138.189C52.8689 137.972 52.2969 136.327 52.6632 134.513C53.0295 132.7 55.4281 127.783 56.4999 128C57.5718 128.217 54.9045 132.872 54.5382 134.685C54.1719 136.498 55.0125 138.405 53.9407 138.189Z" fill="#43C59E"/>
<path d="M50.5 123.5C52.9689 122.739 57.9548 123.539 58.5 125.307C59.0452 127.075 58.4689 129.239 56 130C53.5311 130.762 55.2761 128.586 54.5051 126.086C53.9599 124.318 48.0311 124.261 50.5 123.5Z" fill="#43C59E"/>
<path d="M49.9999 67C51.8237 66.2906 56.4987 75.355 58.3823 80.1976C60.266 85.0403 56.9702 90.2447 55.1465 90.9541C53.3228 91.6634 53.3836 82.3426 51.4999 77.5C49.6163 72.6574 48.9999 68 49.9999 67Z" fill="#43C59E"/>
<path d="M47.5 103C50.4716 103.339 56.5168 92.3961 57.1322 86.9999C57.7476 81.6038 54.4716 73.8389 51.5 73.5C48.5284 73.1611 53 79.0001 54.5 85.0001C53.5 89.5001 51.4999 93 47.5 103Z" fill="#43C59E"/>
<path d="M58.3656 44.0001C55.3773 43.8763 47.5 65.0001 50 70.5001C51 76.5001 55.3773 80.9397 58.3656 81.0635C61.3539 81.1874 65.9285 78.3764 64 72.5001C64.673 67.9398 55.0968 54.2624 58.3656 44.0001Z" fill="#43C59E"/>
<path d="M52.1732 124.55C43.6849 125.533 37.9538 116.105 42.7338 109.022L90.0817 38.8629C94.1605 32.819 103.128 33.0318 106.916 39.2623L143.647 99.6849C147.435 105.915 143.496 113.974 136.252 114.813L52.1732 124.55Z" fill="#43C59E"/>
<path d="M162.927 194.925C153 203.5 160.528 209.576 94.4268 200C89.2261 152.247 122.827 164.108 81.9268 93.0002C99.7913 69.6091 118.117 65.0962 157.927 95.5004C174.328 146.055 157.927 147 162.927 194.925Z" fill="#43C59E"/>
</svg>
