<svg width="40" height="40" viewBox="0 0 40 40" fill="none" xmlns="http://www.w3.org/2000/svg">
<path d="M12.2801 10.48C11.7201 10.48 11.2468 10.6733 10.8601 11.06C10.4734 11.4466 10.2801 11.92 10.2801 12.48C10.2801 13.04 10.4734 13.5133 10.8601 13.9C11.2468 14.2866 11.7201 14.48 12.2801 14.48C12.8401 14.48 13.3134 14.2866 13.7001 13.9C14.0868 13.5133 14.2801 13.04 14.2801 12.48C14.2801 11.92 14.0868 11.4466 13.7001 11.06C13.3134 10.6733 12.8401 10.48 12.2801 10.48ZM12.2801 27.04C11.7201 27.04 11.2468 27.2333 10.8601 27.62C10.4734 28.0066 10.2801 28.48 10.2801 29.04C10.2801 29.6 10.4734 30.0733 10.8601 30.46C11.2468 30.8466 11.7201 31.04 12.2801 31.04C12.8401 31.04 13.3134 30.8466 13.7001 30.46C14.0868 30.0733 14.2801 29.6 14.2801 29.04C14.2801 28.48 14.0868 28.0066 13.7001 27.62C13.3134 27.2333 12.8401 27.04 12.2801 27.04ZM6.9601 5.59998H33.0001C33.4268 5.59998 33.7668 5.72664 34.0201 5.97998C34.2734 6.23331 34.4001 6.57331 34.4001 6.99998V17.76C34.4001 18.2133 34.2734 18.6 34.0201 18.92C33.7668 19.24 33.4268 19.4 33.0001 19.4H6.9601C6.5601 19.4 6.23343 19.24 5.9801 18.92C5.72676 18.6 5.6001 18.2133 5.6001 17.76V6.99998C5.6001 6.57331 5.72676 6.23331 5.9801 5.97998C6.23343 5.72664 6.5601 5.59998 6.9601 5.59998ZM8.0001 7.99998V17H32.0001V7.99998H8.0001ZM6.9601 22.12H32.8401C33.2401 22.12 33.6001 22.2866 33.9201 22.62C34.2401 22.9533 34.4001 23.3333 34.4001 23.76V34.32C34.4001 34.8533 34.2401 35.26 33.9201 35.54C33.6001 35.82 33.2401 35.96 32.8401 35.96H7.1601C6.73343 35.96 6.36676 35.82 6.0601 35.54C5.75343 35.26 5.6001 34.8533 5.6001 34.32V23.76C5.6001 23.3333 5.72676 22.9533 5.9801 22.62C6.23343 22.2866 6.5601 22.12 6.9601 22.12ZM8.0001 24.52V33.56H32.0001V24.52H8.0001ZM8.0001 7.99998V17V7.99998ZM8.0001 24.52V33.56V24.52Z" fill="white"/>
</svg>
