<svg width="50" height="50" viewBox="0 0 50 50" fill="none" xmlns="http://www.w3.org/2000/svg">
<rect width="50" height="50" fill="white"/>
<path d="M15.35 13.1C14.65 13.1 14.0583 13.3417 13.575 13.825C13.0917 14.3083 12.85 14.9 12.85 15.6C12.85 16.3 13.0917 16.8917 13.575 17.375C14.0583 17.8583 14.65 18.1 15.35 18.1C16.05 18.1 16.6417 17.8583 17.125 17.375C17.6083 16.8917 17.85 16.3 17.85 15.6C17.85 14.9 17.6083 14.3083 17.125 13.825C16.6417 13.3417 16.05 13.1 15.35 13.1ZM15.35 33.8C14.65 33.8 14.0583 34.0417 13.575 34.525C13.0917 35.0083 12.85 35.6 12.85 36.3C12.85 37 13.0917 37.5917 13.575 38.075C14.0583 38.5583 14.65 38.8 15.35 38.8C16.05 38.8 16.6417 38.5583 17.125 38.075C17.6083 37.5917 17.85 37 17.85 36.3C17.85 35.6 17.6083 35.0083 17.125 34.525C16.6417 34.0417 16.05 33.8 15.35 33.8ZM8.7 7H41.25C41.7833 7 42.2083 7.15833 42.525 7.475C42.8417 7.79167 43 8.21667 43 8.75V22.2C43 22.7667 42.8417 23.25 42.525 23.65C42.2083 24.05 41.7833 24.25 41.25 24.25H8.7C8.2 24.25 7.79167 24.05 7.475 23.65C7.15833 23.25 7 22.7667 7 22.2V8.75C7 8.21667 7.15833 7.79167 7.475 7.475C7.79167 7.15833 8.2 7 8.7 7ZM10 10V21.25H40V10H10ZM8.7 27.65H41.05C41.55 27.65 42 27.8583 42.4 28.275C42.8 28.6917 43 29.1667 43 29.7V42.9C43 43.5667 42.8 44.075 42.4 44.425C42 44.775 41.55 44.95 41.05 44.95H8.95C8.41667 44.95 7.95833 44.775 7.575 44.425C7.19167 44.075 7 43.5667 7 42.9V29.7C7 29.1667 7.15833 28.6917 7.475 28.275C7.79167 27.8583 8.2 27.65 8.7 27.65ZM10 30.65V41.95H40V30.65H10ZM10 10V21.25V10ZM10 30.65V41.95V30.65Z" fill="#0075A2"/>
</svg>
