<svg width="1091" height="281" viewBox="0 0 1091 281" fill="none" xmlns="http://www.w3.org/2000/svg">
<path d="M334.979 99.6575V184.423H319.786V99.6575H334.979ZM360.041 99.6575V112.291H295V99.6575H360.041Z" fill="#1E1E1E"/>
<path d="M383.441 95V184.423H368.747V95H383.441ZM381.112 150.657H376.787C376.787 146.271 377.341 142.234 378.45 138.547C379.559 134.86 381.13 131.658 383.164 128.941C385.197 126.186 387.618 124.051 390.427 122.537C393.274 121.024 396.416 120.267 399.854 120.267C402.811 120.267 405.491 120.713 407.894 121.606C410.333 122.46 412.422 123.837 414.159 125.739C415.897 127.641 417.228 130.125 418.152 133.191C419.113 136.218 419.593 139.906 419.593 144.253V184.423H404.844V144.136C404.844 141.225 404.437 138.935 403.624 137.266C402.811 135.559 401.646 134.336 400.131 133.599C398.652 132.861 396.822 132.493 394.641 132.493C392.276 132.493 390.242 132.978 388.542 133.948C386.842 134.879 385.437 136.18 384.328 137.849C383.256 139.518 382.443 141.439 381.888 143.612C381.371 145.786 381.112 148.134 381.112 150.657Z" fill="#1E1E1E"/>
<path d="M429.907 153.568V152.345C429.907 147.726 430.535 143.476 431.792 139.595C433.049 135.675 434.879 132.279 437.282 129.407C439.684 126.535 442.623 124.303 446.098 122.712C449.573 121.082 453.528 120.267 457.964 120.267C462.474 120.267 466.466 121.082 469.941 122.712C473.453 124.303 476.41 126.535 478.813 129.407C481.215 132.279 483.045 135.675 484.302 139.595C485.559 143.476 486.187 147.726 486.187 152.345V153.568C486.187 158.147 485.559 162.397 484.302 166.317C483.045 170.199 481.215 173.595 478.813 176.505C476.41 179.378 473.471 181.609 469.996 183.201C466.521 184.792 462.548 185.588 458.075 185.588C453.639 185.588 449.665 184.792 446.153 183.201C442.642 181.609 439.684 179.378 437.282 176.505C434.879 173.595 433.049 170.199 431.792 166.317C430.535 162.397 429.907 158.147 429.907 153.568ZM444.545 152.345V153.568C444.545 156.323 444.804 158.904 445.322 161.311C445.839 163.717 446.634 165.832 447.706 167.656C448.778 169.48 450.164 170.917 451.865 171.964C453.602 172.974 455.672 173.478 458.075 173.478C460.441 173.478 462.474 172.974 464.174 171.964C465.875 170.917 467.261 169.48 468.333 167.656C469.442 165.832 470.255 163.717 470.773 161.311C471.29 158.904 471.549 156.323 471.549 153.568V152.345C471.549 149.628 471.29 147.086 470.773 144.718C470.255 142.312 469.442 140.197 468.333 138.373C467.261 136.51 465.856 135.054 464.119 134.006C462.418 132.919 460.367 132.376 457.964 132.376C455.598 132.376 453.565 132.919 451.865 134.006C450.164 135.054 448.778 136.51 447.706 138.373C446.634 140.197 445.839 142.312 445.322 144.718C444.804 147.086 444.545 149.628 444.545 152.345Z" fill="#1E1E1E"/>
<path d="M532.543 169.461V121.431H547.292V184.423H533.43L532.543 169.461ZM534.428 156.42L538.975 156.304C538.975 160.534 538.531 164.435 537.644 168.006C536.757 171.576 535.37 174.681 533.485 177.321C531.637 179.921 529.29 181.959 526.443 183.433C523.597 184.87 520.233 185.588 516.351 185.588C513.394 185.588 510.696 185.161 508.256 184.307C505.816 183.414 503.709 182.036 501.935 180.173C500.197 178.271 498.848 175.846 497.887 172.896C496.926 169.907 496.445 166.317 496.445 162.126V121.431H511.084V162.242C511.084 164.338 511.306 166.084 511.749 167.482C512.23 168.879 512.877 170.024 513.69 170.917C514.54 171.77 515.52 172.391 516.629 172.78C517.775 173.129 518.995 173.303 520.288 173.303C523.837 173.303 526.628 172.566 528.661 171.091C530.731 169.578 532.21 167.559 533.097 165.037C533.984 162.475 534.428 159.603 534.428 156.42Z" fill="#1E1E1E"/>
<path d="M598.416 121.431H611.723V182.502C611.723 188.207 610.54 193.039 608.175 196.998C605.846 200.996 602.574 204.023 598.36 206.08C594.146 208.176 589.248 209.224 583.666 209.224C581.263 209.224 578.657 208.875 575.848 208.176C573.076 207.478 570.396 206.371 567.808 204.858C565.257 203.383 563.132 201.462 561.431 199.094L568.03 190.012C570.026 192.457 572.281 194.301 574.794 195.543C577.308 196.824 580.025 197.464 582.945 197.464C585.903 197.464 588.416 196.882 590.486 195.718C592.594 194.592 594.202 192.923 595.31 190.711C596.456 188.537 597.029 185.859 597.029 182.677V135.811L598.416 121.431ZM557.883 153.684V152.461C557.883 147.649 558.437 143.282 559.546 139.362C560.655 135.403 562.245 132.007 564.315 129.174C566.422 126.341 568.954 124.148 571.911 122.595C574.905 121.043 578.269 120.267 582.003 120.267C585.958 120.267 589.285 121.024 591.984 122.537C594.719 124.051 596.974 126.205 598.748 128.999C600.56 131.794 601.964 135.112 602.962 138.955C603.997 142.758 604.792 146.95 605.347 151.53V154.848C604.829 159.312 603.997 163.406 602.852 167.132C601.743 170.858 600.264 174.119 598.416 176.913C596.567 179.669 594.275 181.803 591.54 183.317C588.805 184.831 585.588 185.588 581.892 185.588C578.195 185.588 574.868 184.792 571.911 183.201C568.954 181.609 566.422 179.378 564.315 176.505C562.245 173.633 560.655 170.257 559.546 166.376C558.437 162.494 557.883 158.264 557.883 153.684ZM572.521 152.461V153.684C572.521 156.401 572.78 158.943 573.297 161.311C573.815 163.678 574.61 165.774 575.682 167.598C576.754 169.383 578.103 170.781 579.729 171.79C581.356 172.799 583.297 173.303 585.552 173.303C588.583 173.303 591.059 172.644 592.982 171.324C594.941 169.966 596.419 168.122 597.418 165.793C598.453 163.426 599.118 160.767 599.414 157.817V148.677C599.229 146.348 598.822 144.194 598.194 142.215C597.602 140.236 596.771 138.528 595.699 137.092C594.627 135.656 593.259 134.53 591.595 133.715C589.932 132.9 587.954 132.493 585.662 132.493C583.444 132.493 581.504 133.016 579.84 134.064C578.177 135.074 576.809 136.49 575.737 138.314C574.665 140.139 573.852 142.254 573.297 144.66C572.78 147.066 572.521 149.667 572.521 152.461Z" fill="#1E1E1E"/>
<path d="M639.281 95V184.423H624.587V95H639.281ZM636.953 150.657H632.628C632.628 146.271 633.182 142.234 634.291 138.547C635.4 134.86 636.971 131.658 639.004 128.941C641.037 126.186 643.458 124.051 646.268 122.537C649.114 121.024 652.256 120.267 655.694 120.267C658.651 120.267 661.332 120.713 663.734 121.606C666.174 122.46 668.263 123.837 670 125.739C671.737 127.641 673.068 130.125 673.992 133.191C674.953 136.218 675.434 139.906 675.434 144.253V184.423H660.685V144.136C660.685 141.225 660.278 138.935 659.465 137.266C658.651 135.559 657.487 134.336 655.971 133.599C654.493 132.861 652.663 132.493 650.482 132.493C648.116 132.493 646.083 132.978 644.383 133.948C642.682 134.879 641.278 136.18 640.169 137.849C639.097 139.518 638.283 141.439 637.729 143.612C637.211 145.786 636.953 148.134 636.953 150.657Z" fill="#1E1E1E"/>
<path d="M716.743 121.431V132.493H682.365V121.431H716.743ZM691.57 105.945H706.263V166.259C706.263 168.122 706.504 169.558 706.984 170.567C707.465 171.576 708.186 172.256 709.147 172.605C710.108 172.954 711.254 173.129 712.585 173.129C713.546 173.129 714.433 173.071 715.246 172.954C716.059 172.838 716.743 172.721 717.298 172.605L717.353 184.132C716.133 184.559 714.747 184.908 713.195 185.18C711.679 185.452 709.96 185.588 708.038 185.588C704.748 185.588 701.865 185.005 699.388 183.841C696.911 182.638 694.989 180.717 693.621 178.077C692.253 175.399 691.57 171.867 691.57 167.482V105.945Z" fill="#1E1E1E"/>
<path d="M769.863 162.417C769.863 160.787 769.623 159.331 769.142 158.05C768.699 156.731 767.867 155.547 766.647 154.499C765.464 153.412 763.782 152.364 761.601 151.355C759.457 150.307 756.685 149.221 753.284 148.095C749.514 146.853 746.002 145.456 742.749 143.903C739.496 142.351 736.631 140.546 734.154 138.489C731.714 136.432 729.811 134.064 728.443 131.386C727.075 128.67 726.391 125.526 726.391 121.955C726.391 118.462 727.094 115.279 728.498 112.407C729.94 109.535 731.973 107.071 734.598 105.014C737.222 102.918 740.309 101.307 743.858 100.181C747.443 99.0559 751.399 98.4931 755.724 98.4931C761.712 98.4931 766.887 99.6381 771.249 101.928C775.648 104.218 779.049 107.323 781.452 111.243C783.855 115.163 785.056 119.568 785.056 124.458H769.863C769.863 121.819 769.327 119.49 768.255 117.472C767.22 115.454 765.631 113.863 763.487 112.698C761.38 111.534 758.718 110.952 755.502 110.952C752.397 110.952 749.809 111.437 747.739 112.407C745.706 113.378 744.172 114.697 743.137 116.366C742.139 118.035 741.64 119.898 741.64 121.955C741.64 123.508 741.991 124.905 742.693 126.147C743.396 127.35 744.449 128.495 745.854 129.582C747.259 130.63 748.996 131.619 751.066 132.551C753.173 133.443 755.613 134.336 758.385 135.229C762.821 136.626 766.703 138.179 770.03 139.886C773.393 141.594 776.184 143.535 778.402 145.708C780.657 147.882 782.339 150.327 783.448 153.044C784.594 155.76 785.167 158.846 785.167 162.3C785.167 165.949 784.483 169.209 783.115 172.081C781.748 174.953 779.789 177.398 777.238 179.416C774.687 181.435 771.619 182.968 768.033 184.016C764.485 185.064 760.511 185.588 756.112 185.588C752.194 185.588 748.312 185.044 744.468 183.957C740.66 182.832 737.204 181.163 734.099 178.951C730.994 176.7 728.517 173.866 726.669 170.451C724.82 166.997 723.896 162.96 723.896 158.341H739.2C739.2 161.019 739.607 163.309 740.42 165.211C741.27 167.074 742.453 168.607 743.969 169.81C745.521 170.975 747.333 171.829 749.403 172.372C751.473 172.915 753.709 173.187 756.112 173.187C759.217 173.187 761.768 172.741 763.764 171.848C765.797 170.917 767.313 169.636 768.311 168.006C769.346 166.376 769.863 164.513 769.863 162.417Z" fill="#1E1E1E"/>
<path d="M810.452 133.54V208.642H795.758V121.431H809.343L810.452 133.54ZM848.989 152.287V153.509C848.989 158.089 848.471 162.339 847.436 166.259C846.438 170.14 844.959 173.536 843 176.447C841.041 179.319 838.601 181.57 835.681 183.201C832.798 184.792 829.471 185.588 825.7 185.588C822.004 185.588 818.787 184.85 816.052 183.375C813.317 181.862 811.006 179.727 809.121 176.971C807.236 174.216 805.72 171.014 804.574 167.365C803.465 163.678 802.633 159.661 802.079 155.314V151.413C802.633 146.795 803.465 142.603 804.574 138.838C805.72 135.035 807.236 131.755 809.121 128.999C811.006 126.205 813.298 124.051 815.997 122.537C818.732 121.024 821.93 120.267 825.589 120.267C829.397 120.267 832.742 121.024 835.625 122.537C838.546 124.051 841.004 126.224 843 129.058C844.996 131.891 846.493 135.268 847.491 139.188C848.49 143.108 848.989 147.474 848.989 152.287ZM834.295 153.509V152.287C834.295 149.492 834.054 146.911 833.574 144.544C833.093 142.137 832.354 140.041 831.356 138.256C830.358 136.432 829.064 135.015 827.474 134.006C825.885 132.997 823.963 132.493 821.708 132.493C819.453 132.493 817.512 132.881 815.886 133.657C814.259 134.433 812.928 135.539 811.893 136.975C810.858 138.411 810.045 140.119 809.454 142.099C808.899 144.039 808.529 146.193 808.345 148.561V158.225C808.677 161.097 809.324 163.678 810.285 165.968C811.246 168.258 812.651 170.082 814.499 171.441C816.385 172.799 818.824 173.478 821.819 173.478C824.074 173.478 825.996 172.954 827.585 171.906C829.175 170.858 830.469 169.422 831.467 167.598C832.465 165.735 833.186 163.6 833.629 161.194C834.073 158.788 834.295 156.226 834.295 153.509Z" fill="#1E1E1E"/>
<path d="M874.329 134.297V184.423H859.69V121.431H873.552L874.329 134.297ZM892.571 121.024L892.35 135.345C891.536 135.19 890.612 135.074 889.577 134.996C888.579 134.918 887.636 134.879 886.749 134.879C884.494 134.879 882.517 135.209 880.816 135.869C879.116 136.49 877.693 137.402 876.547 138.605C875.438 139.809 874.587 141.283 873.996 143.03C873.405 144.738 873.072 146.678 872.998 148.852L869.837 148.444C869.837 144.447 870.225 140.74 871.002 137.325C871.778 133.909 872.905 130.921 874.384 128.359C875.863 125.797 877.711 123.818 879.929 122.421C882.184 120.985 884.771 120.267 887.692 120.267C888.505 120.267 889.374 120.344 890.298 120.5C891.259 120.616 892.017 120.791 892.571 121.024Z" fill="#1E1E1E"/>
<path d="M916.137 121.431V184.423H901.443V121.431H916.137ZM900.445 104.955C900.445 102.665 901.184 100.764 902.663 99.2499C904.179 97.7363 906.212 96.9794 908.762 96.9794C911.313 96.9794 913.328 97.7363 914.806 99.2499C916.322 100.764 917.08 102.665 917.08 104.955C917.08 107.206 916.322 109.089 914.806 110.602C913.328 112.116 911.313 112.873 908.762 112.873C906.212 112.873 904.179 112.116 902.663 110.602C901.184 109.089 900.445 107.206 900.445 104.955Z" fill="#1E1E1E"/>
<path d="M944.471 134.879V184.423H929.833V121.431H943.584L944.471 134.879ZM942.143 150.657H937.818C937.854 146.077 938.446 141.924 939.592 138.198C940.738 134.472 942.346 131.27 944.416 128.592C946.523 125.914 949.018 123.857 951.901 122.421C954.785 120.985 958.001 120.267 961.55 120.267C964.433 120.267 967.039 120.694 969.368 121.548C971.697 122.401 973.693 123.76 975.356 125.623C977.057 127.486 978.351 129.931 979.238 132.958C980.162 135.947 980.624 139.634 980.624 144.02V184.423H965.875V143.903C965.875 141.031 965.468 138.761 964.655 137.092C963.878 135.423 962.732 134.239 961.217 133.54C959.738 132.842 957.908 132.493 955.727 132.493C953.473 132.493 951.495 132.978 949.794 133.948C948.131 134.879 946.726 136.18 945.58 137.849C944.471 139.518 943.621 141.439 943.03 143.612C942.438 145.786 942.143 148.134 942.143 150.657Z" fill="#1E1E1E"/>
<path d="M1031.69 121.431H1045V182.502C1045 188.207 1043.82 193.039 1041.45 196.998C1039.12 200.996 1035.85 204.023 1031.64 206.08C1027.42 208.176 1022.52 209.224 1016.94 209.224C1014.54 209.224 1011.93 208.875 1009.12 208.176C1006.35 207.478 1003.67 206.371 1001.08 204.858C998.534 203.383 996.408 201.462 994.708 199.094L1001.31 190.012C1003.3 192.457 1005.56 194.301 1008.07 195.543C1010.58 196.824 1013.3 197.464 1016.22 197.464C1019.18 197.464 1021.69 196.882 1023.76 195.718C1025.87 194.592 1027.48 192.923 1028.59 190.711C1029.73 188.537 1030.31 185.859 1030.31 182.677V135.811L1031.69 121.431ZM991.159 153.684V152.461C991.159 147.649 991.714 143.282 992.823 139.362C993.932 135.403 995.521 132.007 997.591 129.174C999.698 126.341 1002.23 124.148 1005.19 122.595C1008.18 121.043 1011.55 120.267 1015.28 120.267C1019.23 120.267 1022.56 121.024 1025.26 122.537C1028 124.051 1030.25 126.205 1032.02 128.999C1033.84 131.794 1035.24 135.112 1036.24 138.955C1037.27 142.758 1038.07 146.95 1038.62 151.53V154.848C1038.11 159.312 1037.27 163.406 1036.13 167.132C1035.02 170.858 1033.54 174.119 1031.69 176.913C1029.84 179.669 1027.55 181.803 1024.82 183.317C1022.08 184.831 1018.87 185.588 1015.17 185.588C1011.47 185.588 1008.15 184.792 1005.19 183.201C1002.23 181.609 999.698 179.378 997.591 176.505C995.521 173.633 993.932 170.257 992.823 166.376C991.714 162.494 991.159 158.264 991.159 153.684ZM1005.8 152.461V153.684C1005.8 156.401 1006.06 158.943 1006.57 161.311C1007.09 163.678 1007.89 165.774 1008.96 167.598C1010.03 169.383 1011.38 170.781 1013.01 171.79C1014.63 172.799 1016.57 173.303 1018.83 173.303C1021.86 173.303 1024.34 172.644 1026.26 171.324C1028.22 169.966 1029.7 168.122 1030.69 165.793C1031.73 163.426 1032.39 160.767 1032.69 157.817V148.677C1032.51 146.348 1032.1 144.194 1031.47 142.215C1030.88 140.236 1030.05 138.528 1028.98 137.092C1027.9 135.656 1026.54 134.53 1024.87 133.715C1023.21 132.9 1021.23 132.493 1018.94 132.493C1016.72 132.493 1014.78 133.016 1013.12 134.064C1011.45 135.074 1010.09 136.49 1009.01 138.314C1007.94 140.139 1007.13 142.254 1006.57 144.66C1006.06 147.066 1005.8 149.667 1005.8 152.461Z" fill="#1E1E1E"/>
<path d="M192 101.72C192 111.012 185.36 118.543 177.17 118.543C176.886 118.543 176.599 118.543 176.291 118.519C174.658 118.404 173.086 118.009 171.635 117.336C170.736 118.543 169.756 119.655 168.695 120.676C164.567 124.614 159.238 127 153.417 127C148.312 127 143.571 125.168 139.691 122.041C138.547 122.481 137.361 122.805 136.158 123.038C134.849 123.292 133.523 123.407 132.155 123.407C127.865 123.407 123.842 122.112 120.35 119.864C118.838 118.891 117.45 117.732 116.162 116.41C113.608 118.752 110.361 120.165 106.828 120.165C101.048 120.165 96.0444 116.41 93.5922 110.941C92.5707 108.649 92 106.077 92 103.342C92 94.0501 98.6373 86.5192 106.828 86.5192C106.888 86.5192 106.95 86.5192 107.01 86.5192C108.542 73.2419 118.51 63 130.602 63C138.26 63 145.083 67.1239 149.414 73.5192C150.719 73.2655 152.048 73.1504 153.417 73.1504C161.789 73.1504 169.143 78.0619 173.37 85.4779C174.577 85.1062 175.864 84.9204 177.17 84.9204C185.055 84.9204 191.507 91.8938 191.979 100.723C191.979 101.047 192 101.372 192 101.72Z" fill="#43C59E"/>
<path d="M216 40.9438C216 46.6899 211.352 51.347 205.619 51.347C205.42 51.347 205.219 51.347 205.004 51.3324C203.86 51.2612 202.76 51.0168 201.744 50.6009C201.115 51.347 200.429 52.0347 199.687 52.6658C196.797 55.1011 193.067 56.5768 188.992 56.5768C185.418 56.5768 182.1 55.444 179.384 53.5104C178.583 53.7822 177.753 53.9828 176.91 54.127C175.995 54.2838 175.066 54.355 174.108 54.355C171.106 54.355 168.289 53.5542 165.845 52.1642C164.787 51.5622 163.815 50.8453 162.914 50.0281C161.126 51.4765 158.853 52.3502 156.379 52.3502C152.333 52.3502 148.831 50.0281 147.115 46.6461C146.399 45.2287 146 43.6381 146 41.9471C146 36.201 150.646 31.544 156.379 31.544C156.421 31.544 156.465 31.544 156.507 31.544C157.58 23.3335 164.557 17 173.021 17C178.382 17 183.158 19.5502 186.19 23.5049C187.104 23.348 188.034 23.2769 188.992 23.2769C194.853 23.2769 200 26.3141 202.959 30.9C203.804 30.6702 204.705 30.5553 205.619 30.5553C211.139 30.5553 215.655 34.8676 215.985 40.3273C215.985 40.5279 216 40.7286 216 40.9438Z" fill="#43C59E"/>
<path d="M259 82.1027C259 86.2071 255.68 89.5335 251.585 89.5335C251.443 89.5335 251.299 89.5335 251.146 89.5231C250.329 89.4723 249.543 89.2977 248.817 89.0006C248.368 89.5335 247.878 90.0248 247.348 90.4756C245.284 92.215 242.619 93.2691 239.708 93.2691C237.156 93.2691 234.786 92.46 232.846 91.0789C232.274 91.273 231.681 91.4163 231.079 91.5193C230.425 91.6313 229.761 91.6821 229.077 91.6821C226.933 91.6821 224.921 91.1101 223.175 90.1173C222.419 89.6873 221.725 89.1752 221.081 88.5915C219.804 89.626 218.181 90.2502 216.414 90.2502C213.524 90.2502 211.022 88.5915 209.796 86.1758C209.285 85.1634 209 84.0272 209 82.8194C209 78.715 212.319 75.3885 216.414 75.3885C216.444 75.3885 216.475 75.3885 216.505 75.3885C217.271 69.5239 222.255 65 228.301 65C232.13 65 235.541 66.8215 237.707 69.6464C238.36 69.5343 239.024 69.4835 239.708 69.4835C243.895 69.4835 247.572 71.6529 249.685 74.9286C250.288 74.7644 250.932 74.6823 251.585 74.6823C255.528 74.6823 258.754 77.7625 258.99 81.6623C258.99 81.8056 259 81.949 259 82.1027Z" fill="#43C59E"/>
<ellipse cx="93" cy="183.5" rx="32" ry="17.5" fill="#0075A2"/>
<ellipse cx="68.5" cy="190" rx="7.5" ry="6" fill="#0075A2"/>
<ellipse cx="71" cy="179.5" rx="3" ry="8.5" fill="#0075A2"/>
<path d="M148.606 202C188.123 202 216.314 111.007 186.662 112.549C115.11 112.549 127.391 122.415 127.391 56C87.8734 56 57 84.0054 57 116.5C62.0355 147.5 109.089 202 148.606 202Z" fill="#0075A2"/>
<path d="M171.5 188C173.513 199.323 116.032 218.978 88.86 218.978C71.7467 218.978 61 215.554 61 208.552C61 201.55 74.8731 195.874 91.9863 195.874C109.1 195.874 171.5 180.998 171.5 188Z" fill="#0075A2"/>
<path d="M64.1227 170.064C70.9245 170.11 76.3791 179.02 76.306 189.966C76.233 200.912 70.6598 209.748 63.8581 209.703C57.0563 209.658 64.5814 202.035 64.6545 191.089C64.7276 180.143 57.321 170.019 64.1227 170.064Z" fill="#0075A2"/>
<path d="M60.4037 191.945C61.3646 191.423 62.8593 192.318 63.7421 193.944C64.625 195.569 65.9609 197.978 64.9999 198.5C64.039 199.022 63.0768 196.641 62.194 195.015C61.3111 193.389 59.4427 192.467 60.4037 191.945Z" fill="#0075A2"/>
<path d="M60.9407 193.189C59.8689 192.972 59.2969 191.327 59.6632 189.513C60.0295 187.7 60.5509 184.995 61.6227 185.212C62.6945 185.428 61.9045 187.872 61.5382 189.685C61.1719 191.498 62.0126 193.405 60.9407 193.189Z" fill="#0075A2"/>
<path d="M60.9407 187.189C59.8689 186.972 59.2969 185.327 59.6632 183.513C60.0295 181.7 62.4281 176.783 63.4999 177C64.5718 177.217 61.9045 181.872 61.5382 183.685C61.1719 185.498 62.0125 187.405 60.9407 187.189Z" fill="#0075A2"/>
<path d="M57.5 172.5C59.9689 171.739 64.9548 172.539 65.5 174.307C66.0452 176.075 65.4689 178.239 63 179C60.5311 179.762 62.2761 177.586 61.5051 175.086C60.9599 173.318 55.0311 173.261 57.5 172.5Z" fill="#0075A2"/>
<path d="M56.9999 116C58.8237 115.291 63.4987 124.355 65.3823 129.198C67.266 134.04 63.9702 139.245 62.1465 139.954C60.3228 140.663 60.3836 131.343 58.4999 126.5C56.6163 121.657 55.9999 117 56.9999 116Z" fill="#0075A2"/>
<path d="M54.5 152C57.4716 152.339 63.5168 141.396 64.1322 136C64.7476 130.604 61.4716 122.839 58.5 122.5C55.5284 122.161 60 128 61.5 134C60.5 138.5 58.4999 142 54.5 152Z" fill="#0075A2"/>
<path d="M65.3656 93.0001C62.3773 92.8763 54.5 114 57 119.5C58 125.5 62.3773 129.94 65.3656 130.064C68.3539 130.187 72.9285 127.376 71 121.5C71.673 116.94 62.0968 103.262 65.3656 93.0001Z" fill="#0075A2"/>
<path d="M59.1732 173.55C50.6849 174.533 44.9538 165.105 49.7338 158.022L97.0817 87.8629C101.16 81.819 110.128 82.0318 113.916 88.2623L150.647 148.685C154.435 154.915 150.496 162.974 143.252 163.813L59.1732 173.55Z" fill="#0075A2"/>
<path d="M169.927 243.925C160 252.5 167.528 258.576 101.427 249C96.2261 201.247 129.827 213.108 88.9268 142C106.791 118.609 125.117 114.096 164.927 144.5C181.328 195.055 164.927 196 169.927 243.925Z" fill="#0075A2"/>
</svg>
