<svg width="262" height="275" viewBox="0 0 262 275" fill="none" xmlns="http://www.w3.org/2000/svg">
<path d="M185 95.7198C185 105.012 178.36 112.543 170.17 112.543C169.886 112.543 169.599 112.543 169.291 112.519C167.658 112.404 166.086 112.009 164.635 111.336C163.736 112.543 162.756 113.655 161.695 114.676C157.567 118.614 152.238 121 146.417 121C141.312 121 136.571 119.168 132.691 116.041C131.547 116.481 130.361 116.805 129.158 117.038C127.849 117.292 126.523 117.407 125.155 117.407C120.865 117.407 116.842 116.112 113.35 113.864C111.838 112.891 110.45 111.732 109.162 110.41C106.608 112.752 103.361 114.165 99.8277 114.165C94.0478 114.165 89.0444 110.41 86.5922 104.941C85.5707 102.649 85 100.077 85 97.3422C85 88.0501 91.6373 80.5192 99.8277 80.5192C99.8877 80.5192 99.9502 80.5192 100.01 80.5192C101.542 67.2419 111.51 57 123.602 57C131.26 57 138.083 61.1239 142.414 67.5192C143.719 67.2655 145.048 67.1504 146.417 67.1504C154.789 67.1504 162.143 72.0619 166.37 79.4779C167.577 79.1062 168.864 78.9204 170.17 78.9204C178.055 78.9204 184.507 85.8938 184.979 94.7227C184.979 95.0472 185 95.3717 185 95.7198Z" fill="white"/>
<path d="M209 34.9438C209 40.6899 204.352 45.347 198.619 45.347C198.42 45.347 198.219 45.347 198.004 45.3324C196.86 45.2612 195.76 45.0168 194.744 44.6009C194.115 45.347 193.429 46.0347 192.687 46.6658C189.797 49.1011 186.067 50.5768 181.992 50.5768C178.418 50.5768 175.1 49.444 172.384 47.5104C171.583 47.7822 170.753 47.9828 169.91 48.127C168.995 48.2838 168.066 48.355 167.108 48.355C164.106 48.355 161.289 47.5542 158.845 46.1642C157.787 45.5622 156.815 44.8453 155.914 44.0281C154.126 45.4765 151.853 46.3502 149.379 46.3502C145.333 46.3502 141.831 44.0281 140.115 40.6461C139.399 39.2287 139 37.6381 139 35.9471C139 30.201 143.646 25.544 149.379 25.544C149.421 25.544 149.465 25.544 149.507 25.544C150.58 17.3335 157.557 11 166.021 11C171.382 11 176.158 13.5502 179.19 17.5049C180.104 17.348 181.034 17.2769 181.992 17.2769C187.853 17.2769 193 20.3141 195.959 24.9C196.804 24.6702 197.705 24.5553 198.619 24.5553C204.139 24.5553 208.655 28.8676 208.985 34.3273C208.985 34.5279 209 34.7286 209 34.9438Z" fill="white"/>
<path d="M252 76.1027C252 80.2071 248.68 83.5335 244.585 83.5335C244.443 83.5335 244.299 83.5335 244.146 83.5231C243.329 83.4723 242.543 83.2977 241.817 83.0006C241.368 83.5335 240.878 84.0248 240.348 84.4756C238.284 86.215 235.619 87.2691 232.708 87.2691C230.156 87.2691 227.786 86.46 225.846 85.0789C225.274 85.273 224.681 85.4163 224.079 85.5193C223.425 85.6313 222.761 85.6821 222.077 85.6821C219.933 85.6821 217.921 85.1101 216.175 84.1173C215.419 83.6873 214.725 83.1752 214.081 82.5915C212.804 83.626 211.181 84.2502 209.414 84.2502C206.524 84.2502 204.022 82.5915 202.796 80.1758C202.285 79.1634 202 78.0272 202 76.8194C202 72.715 205.319 69.3885 209.414 69.3885C209.444 69.3885 209.475 69.3885 209.505 69.3885C210.271 63.5239 215.255 59 221.301 59C225.13 59 228.541 60.8215 230.707 63.6464C231.36 63.5343 232.024 63.4835 232.708 63.4835C236.895 63.4835 240.572 65.6529 242.685 68.9286C243.288 68.7644 243.932 68.6823 244.585 68.6823C248.528 68.6823 251.754 71.7625 251.99 75.6623C251.99 75.8056 252 75.949 252 76.1027Z" fill="white"/>
<path d="M262 11.9719C262 14.8449 259.676 17.1735 256.809 17.1735C256.71 17.1735 256.61 17.1735 256.502 17.1662C255.93 17.1306 255.38 17.0084 254.872 16.8004C254.557 17.1735 254.215 17.5173 253.843 17.8329C252.399 19.0505 250.533 19.7884 248.496 19.7884C246.709 19.7884 245.05 19.222 243.692 18.2552C243.291 18.3911 242.877 18.4914 242.455 18.5635C241.997 18.6419 241.533 18.6775 241.054 18.6775C239.553 18.6775 238.145 18.2771 236.922 17.5821C236.393 17.2811 235.907 16.9227 235.457 16.514C234.563 17.2382 233.426 17.6751 232.19 17.6751C230.167 17.6751 228.416 16.514 227.557 14.8231C227.2 14.1144 227 13.319 227 12.4735C227 9.60051 229.323 7.27198 232.19 7.27198C232.211 7.27198 232.233 7.27198 232.254 7.27198C232.79 3.16673 236.279 0 240.511 0C243.191 0 245.579 1.27508 247.095 3.25246C247.552 3.17402 248.017 3.13845 248.496 3.13845C251.426 3.13845 254 4.65706 255.48 6.95002C255.902 6.8351 256.352 6.77764 256.809 6.77764C259.569 6.77764 261.828 8.93378 261.993 11.6636C261.993 11.764 262 11.8643 262 11.9719Z" fill="white"/>
<ellipse cx="86" cy="177.5" rx="32" ry="17.5" fill="#43C59E"/>
<ellipse cx="61.5" cy="184" rx="7.5" ry="6" fill="#43C59E"/>
<ellipse cx="64" cy="173.5" rx="3" ry="8.5" fill="#43C59E"/>
<path d="M141.606 196C181.123 196 209.314 105.007 179.662 106.549C108.11 106.549 120.391 116.415 120.391 50C80.8734 50 50 78.0054 50 110.5C55.0355 141.5 102.089 196 141.606 196Z" fill="#43C59E"/>
<path d="M164.5 182C166.513 193.323 109.032 212.978 81.86 212.978C64.7467 212.978 54 209.554 54 202.552C54 195.55 67.8731 189.874 84.9863 189.874C102.1 189.874 164.5 174.998 164.5 182Z" fill="#43C59E"/>
<path d="M57.1227 164.064C63.9245 164.11 69.3791 173.02 69.306 183.966C69.233 194.912 63.6598 203.748 56.8581 203.703C50.0563 203.658 57.5814 196.035 57.6545 185.089C57.7276 174.143 50.321 164.019 57.1227 164.064Z" fill="#43C59E"/>
<path d="M53.4037 185.945C54.3646 185.423 55.8593 186.318 56.7421 187.944C57.625 189.569 58.9609 191.978 57.9999 192.5C57.039 193.022 56.0768 190.641 55.194 189.015C54.3111 187.389 52.4427 186.467 53.4037 185.945Z" fill="#43C59E"/>
<path d="M53.9407 187.189C52.8689 186.972 52.2969 185.327 52.6632 183.513C53.0295 181.7 53.5509 178.995 54.6227 179.212C55.6945 179.428 54.9045 181.872 54.5382 183.685C54.1719 185.498 55.0126 187.405 53.9407 187.189Z" fill="#43C59E"/>
<path d="M53.9407 181.189C52.8689 180.972 52.2969 179.327 52.6632 177.513C53.0295 175.7 55.4281 170.783 56.4999 171C57.5718 171.217 54.9045 175.872 54.5382 177.685C54.1719 179.498 55.0125 181.405 53.9407 181.189Z" fill="#43C59E"/>
<path d="M50.5 166.5C52.9689 165.739 57.9548 166.539 58.5 168.307C59.0452 170.075 58.4689 172.239 56 173C53.5311 173.762 55.2761 171.586 54.5051 169.086C53.9599 167.318 48.0311 167.261 50.5 166.5Z" fill="#43C59E"/>
<path d="M49.9999 110C51.8237 109.291 56.4987 118.355 58.3823 123.198C60.266 128.04 56.9702 133.245 55.1465 133.954C53.3228 134.663 53.3836 125.343 51.4999 120.5C49.6163 115.657 48.9999 111 49.9999 110Z" fill="#43C59E"/>
<path d="M47.5 146C50.4716 146.339 56.5168 135.396 57.1322 130C57.7476 124.604 54.4716 116.839 51.5 116.5C48.5284 116.161 53 122 54.5 128C53.5 132.5 51.4999 136 47.5 146Z" fill="#43C59E"/>
<path d="M58.3656 87.0001C55.3773 86.8763 47.5 108 50 113.5C51 119.5 55.3773 123.94 58.3656 124.064C61.3539 124.187 65.9285 121.376 64 115.5C64.673 110.94 55.0968 97.2624 58.3656 87.0001Z" fill="#43C59E"/>
<path d="M52.1732 167.55C43.6849 168.533 37.9538 159.105 42.7338 152.022L90.0817 81.8629C94.1605 75.819 103.128 76.0318 106.916 82.2623L143.647 142.685C147.435 148.915 143.496 156.974 136.252 157.813L52.1732 167.55Z" fill="#43C59E"/>
<path d="M162.927 237.925C153 246.5 160.528 252.576 94.4268 243C89.2261 195.247 122.827 207.108 81.9268 136C99.7913 112.609 118.117 108.096 157.927 138.5C174.328 189.055 157.927 190 162.927 237.925Z" fill="#43C59E"/>
</svg>
