<svg width="40" height="40" viewBox="0 0 40 40" fill="none" xmlns="http://www.w3.org/2000/svg">
<path d="M4 32.8V29.2H7.44V9.60001C7.44 8.93335 7.67333 8.36668 8.14 7.90001C8.60667 7.43335 9.17333 7.20001 9.84 7.20001H34.64V9.60001H9.84V29.2H19.2V32.8H4ZM23.16 32.8C22.7067 32.8 22.3333 32.62 22.04 32.26C21.7467 31.9 21.6 31.4933 21.6 31.04V13.56C21.6 13.1067 21.7467 12.7333 22.04 12.44C22.3333 12.1467 22.7067 12 23.16 12H34.04C34.5467 12 35 12.14 35.4 12.42C35.8 12.7 36 13.08 36 13.56V31.04C36 31.5467 35.8067 31.9667 35.42 32.3C35.0333 32.6333 34.5733 32.8 34.04 32.8H23.16ZM24 29.2H33.6V14.4H24V29.2Z" fill="white"/>
</svg>
