<svg width="50" height="50" viewBox="0 0 50 50" fill="none" xmlns="http://www.w3.org/2000/svg">
<rect width="50" height="50" fill="white"/>
<path d="M5 41V36.5H9.3V12C9.3 11.1667 9.59167 10.4583 10.175 9.875C10.7583 9.29167 11.4667 9 12.3 9H43.3V12H12.3V36.5H24V41H5ZM28.95 41C28.3833 41 27.9167 40.775 27.55 40.325C27.1833 39.875 27 39.3667 27 38.8V16.95C27 16.3833 27.1833 15.9167 27.55 15.55C27.9167 15.1833 28.3833 15 28.95 15H42.55C43.1833 15 43.75 15.175 44.25 15.525C44.75 15.875 45 16.35 45 16.95V38.8C45 39.4333 44.7583 39.9583 44.275 40.375C43.7917 40.7917 43.2167 41 42.55 41H28.95ZM30 36.5H42V18H30V36.5Z" fill="#0075A2"/>
</svg>
