<svg width="36" height="29" viewBox="0 0 36 29" fill="none" xmlns="http://www.w3.org/2000/svg">
<path d="M3.08776 28.5088C2.386 28.5088 1.77197 28.2456 1.24565 27.7193C0.719335 27.193 0.456177 26.5789 0.456177 25.8772V3.07018C0.456177 2.36842 0.719335 1.75439 1.24565 1.22807C1.77197 0.701756 2.386 0.438599 3.08776 0.438599H32.9123C33.6141 0.438599 34.2281 0.701756 34.7544 1.22807C35.2807 1.75439 35.5439 2.36842 35.5439 3.07018V25.8772C35.5439 26.5789 35.2807 27.193 34.7544 27.7193C34.2281 28.2456 33.6141 28.5088 32.9123 28.5088H3.08776ZM3.08776 25.8772H32.9123V6.75439H3.08776V25.8772Z" fill="white"/>
</svg>
