<svg width="40" height="40" viewBox="0 0 40 40" fill="none" xmlns="http://www.w3.org/2000/svg">
<path d="M4.3599 28.44L2.3999 27L9.9199 15L14.7199 20.6L21.0799 10.28L25.4399 16.76C25.0132 16.8133 24.5999 16.9 24.1999 17.02C23.7999 17.14 23.3999 17.28 22.9999 17.44L21.1999 14.68L15.0799 24.64L10.2399 19L4.3599 28.44ZM35.8799 36.8L30.5199 31.44C29.9599 31.84 29.3532 32.1467 28.6999 32.36C28.0466 32.5733 27.3732 32.68 26.6799 32.68C24.7866 32.68 23.1799 32.02 21.8599 30.7C20.5399 29.38 19.8799 27.7733 19.8799 25.88C19.8799 23.9867 20.5399 22.38 21.8599 21.06C23.1799 19.74 24.7866 19.08 26.6799 19.08C28.5732 19.08 30.1799 19.74 31.4999 21.06C32.8199 22.38 33.4799 23.9867 33.4799 25.88C33.4799 26.5733 33.3666 27.2467 33.1399 27.9C32.9132 28.5533 32.6132 29.1733 32.2399 29.76L37.5999 35.08L35.8799 36.8ZM26.6799 30.28C27.9066 30.28 28.9466 29.8533 29.7999 29C30.6532 28.1467 31.0799 27.1067 31.0799 25.88C31.0799 24.6533 30.6532 23.6133 29.7999 22.76C28.9466 21.9067 27.9066 21.48 26.6799 21.48C25.4532 21.48 24.4132 21.9067 23.5599 22.76C22.7066 23.6133 22.2799 24.6533 22.2799 25.88C22.2799 27.1067 22.7066 28.1467 23.5599 29C24.4132 29.8533 25.4532 30.28 26.6799 30.28ZM29.6399 17.16C29.2399 17 28.8266 16.8933 28.3999 16.84C27.9732 16.7867 27.5332 16.7333 27.0799 16.68L35.6399 3.20001L37.5999 4.64001L29.6399 17.16Z" fill="white"/>
</svg>
