<svg width="50" height="50" viewBox="0 0 50 50" fill="none" xmlns="http://www.w3.org/2000/svg">
<rect width="50" height="50" fill="white"/>
<path d="M5.45 35.55L3 33.75L12.4 18.75L18.4 25.75L26.35 12.85L31.8 20.95C31.2667 21.0167 30.75 21.125 30.25 21.275C29.75 21.425 29.25 21.6 28.75 21.8L26.5 18.35L18.85 30.8L12.8 23.75L5.45 35.55ZM44.85 46L38.15 39.3C37.45 39.8 36.6917 40.1833 35.875 40.45C35.0583 40.7167 34.2167 40.85 33.35 40.85C30.9833 40.85 28.975 40.025 27.325 38.375C25.675 36.725 24.85 34.7167 24.85 32.35C24.85 29.9833 25.675 27.975 27.325 26.325C28.975 24.675 30.9833 23.85 33.35 23.85C35.7167 23.85 37.725 24.675 39.375 26.325C41.025 27.975 41.85 29.9833 41.85 32.35C41.85 33.2167 41.7083 34.0583 41.425 34.875C41.1417 35.6917 40.7667 36.4667 40.3 37.2L47 43.85L44.85 46ZM33.35 37.85C34.8833 37.85 36.1833 37.3167 37.25 36.25C38.3167 35.1833 38.85 33.8833 38.85 32.35C38.85 30.8167 38.3167 29.5167 37.25 28.45C36.1833 27.3833 34.8833 26.85 33.35 26.85C31.8167 26.85 30.5167 27.3833 29.45 28.45C28.3833 29.5167 27.85 30.8167 27.85 32.35C27.85 33.8833 28.3833 35.1833 29.45 36.25C30.5167 37.3167 31.8167 37.85 33.35 37.85ZM37.05 21.45C36.55 21.25 36.0333 21.1167 35.5 21.05C34.9667 20.9833 34.4167 20.9167 33.85 20.85L44.55 4L47 5.8L37.05 21.45Z" fill="#0075A2"/>
</svg>
